<?xml version="1.0" encoding="utf-8"?>
<!-- Generator: Adobe Illustrator 17.1.0, SVG Export Plug-In . SVG Version: 6.00 Build 0)  -->
<!DOCTYPE svg PUBLIC "-//W3C//DTD SVG 1.1//EN" "http://www.w3.org/Graphics/SVG/1.1/DTD/svg11.dtd">
<svg version="1.1" id="Слой_1" xmlns="http://www.w3.org/2000/svg" xmlns:xlink="http://www.w3.org/1999/xlink" x="0px" y="0px"
	 viewBox="0 0 35 35" enable-background="new 0 0 35 35" xml:space="preserve">
<path fill="#F26E2D" d="M17.5,0C7.8,0,0,7.8,0,17.5S7.8,35,17.5,35S35,27.2,35,17.5S27.2,0,17.5,0z M22,9c0,0.5-0.4,1-1,1h-2v2h2
	c0.5,0,1,0.4,1,1v0c0,0.5-0.4,1-1,1h-2v2h2c0.5,0,1,0.4,1,1v0c0,0.5-0.4,1-1,1h-2v3.3c1.7,0.6,3,2.3,3,4.2c0,2.5-2,4.5-4.5,4.5
	S13,28,13,25.5c0-2,1.3-3.6,3-4.2V6.5C16,5.7,16.7,5,17.5,5h0C18.3,5,19,5.7,19,6.5V8h2C21.6,8,22,8.4,22,9L22,9z"/>
</svg>
