<?xml version="1.0" encoding="utf-8"?>
<!-- Generator: Adobe Illustrator 17.1.0, SVG Export Plug-In . SVG Version: 6.00 Build 0)  -->
<!DOCTYPE svg PUBLIC "-//W3C//DTD SVG 1.1//EN" "http://www.w3.org/Graphics/SVG/1.1/DTD/svg11.dtd">
<svg version="1.1" id="Слой_1" xmlns="http://www.w3.org/2000/svg" xmlns:xlink="http://www.w3.org/1999/xlink" x="0px" y="0px"
	 viewBox="0 0 35 40" enable-background="new 0 0 35 40" xml:space="preserve">
<path fill="#5CB0AF" d="M20.6,5.3l-3.1-5.2l-3.1,5.2C6.2,6.8,0,13.9,0,22.5C0,32.2,7.8,40,17.5,40S35,32.2,35,22.5
	C35,13.9,28.8,6.8,20.6,5.3z M13,32c0,0.5-0.4,1-1,1h0c-0.5,0-1-0.4-1-1v-3c0-0.5,0.4-1,1-1h0c0.5,0,1,0.4,1,1V32z M13,25
	c0,0.5-0.4,1-1,1h0c-0.5,0-1-0.4-1-1v-1c0-0.5,0.4-1,1-1h0c0.5,0,1,0.4,1,1V25z M17,32c0,0.5-0.4,1-1,1h0c-0.5,0-1-0.4-1-1v-8
	c0-0.5,0.4-1,1-1h0c0.5,0,1,0.4,1,1V32z M21,32c0,0.5-0.4,1-1,1h0c-0.5,0-1-0.4-1-1v-1c0-0.5,0.4-1,1-1h0c0.5,0,1,0.4,1,1V32z
	 M21,27c0,0.5-0.4,1-1,1h0c-0.5,0-1-0.4-1-1v-3c0-0.5,0.4-1,1-1h0c0.5,0,1,0.4,1,1V27z M25,15v17.1c0,0.5-0.4,0.9-0.9,0.9h-0.3
	c-0.5,0-0.9-0.4-0.9-0.9V15.9c0-0.5-0.4-0.9-0.9-0.9h-4.3c-0.5,0-0.9,0.4-0.9,0.9v0c0,0.4,0.2,0.7,0.6,0.8c2.1,0.6,3.7,2.2,4.2,4.3
	c0.1,0.5-0.3,1-0.8,1H11c-0.5,0-1-0.5-0.8-1c0.5-2.1,2.1-3.7,4.2-4.3c0.4-0.1,0.6-0.4,0.6-0.8V15v-1.1c0-0.5,0.4-0.9,0.9-0.9H17h6
	h1.1c0.5,0,0.9,0.4,0.9,0.9V15z"/>
</svg>
