<?xml version="1.0" encoding="utf-8"?>
<!-- Generator: Adobe Illustrator 17.1.0, SVG Export Plug-In . SVG Version: 6.00 Build 0)  -->
<!DOCTYPE svg PUBLIC "-//W3C//DTD SVG 1.1//EN" "http://www.w3.org/Graphics/SVG/1.1/DTD/svg11.dtd">
<svg version="1.1" id="Слой_1" xmlns="http://www.w3.org/2000/svg" xmlns:xlink="http://www.w3.org/1999/xlink" x="0px" y="0px"
	 viewBox="0 0 35 40" enable-background="new 0 0 35 40" xml:space="preserve">
<g>
	<path fill="#5CB0AF" d="M23,14.5L23,14.5c0-0.2,0-0.4-0.1-0.5h-4.8C18,14.2,18,14.3,18,14.5V16h6v-0.1C23.4,15.7,23,15.2,23,14.5z"
		/>
	<path fill="#5CB0AF" d="M12.1,14C12,14.2,12,14.3,12,14.5v0c0,0.6-0.4,1.2-1,1.4V16h6v-1.5c0-0.2,0-0.3-0.1-0.5H12.1z"/>
	<path fill="#5CB0AF" d="M17.5,0C7.8,0,0,7.8,0,17.5c0,8.6,6.2,15.7,14.4,17.2l3.1,5.2l3.1-5.2C28.8,33.2,35,26.1,35,17.5
		C35,7.8,27.2,0,17.5,0z M28,22L28,22c0,0.2,0,0.3,0,0.5v0c0,1.4-1.1,2.5-2.5,2.5H9.5C8.1,25,7,23.9,7,22.5v0c0-0.2,0-0.3,0-0.5h0
		v-2h2.5h16.1H28V22z M7,19l2-3v-1.5V14v-2.5c0-0.8,0.7-1.5,1.5-1.5h14c0.8,0,1.5,0.7,1.5,1.5V14v0.5V16l2,3H7z"/>
</g>
</svg>
